<?xml version="1.0" encoding="UTF-8"?>
<svg width="20px" height="20px" viewBox="0 0 20 20" version="1.1" xmlns="http://www.w3.org/2000/svg" xmlns:xlink="http://www.w3.org/1999/xlink">
    <!-- Generator: Sketch 46.2 (44496) - http://www.bohemiancoding.com/sketch -->
    <title>微信</title>
    <desc>Created with Sketch.</desc>
    <defs></defs>
    <g id="定制旅行" stroke="none" stroke-width="1" fill="none" fill-rule="evenodd">
        <g id="微信" fill-rule="nonzero" fill="#918682">
            <path d="M13.538908,6.87759036 C13.769022,6.87759036 13.9959652,6.89443246 14.2207027,6.91885694 C13.6083903,4.09705918 10.5591438,2 7.07887294,2 C3.18765955,2 0,4.62472456 0,7.95732264 C0,9.88067617 1.06073034,11.4603866 2.83264288,12.6856318 L2.12474639,14.7933064 L4.59910987,13.5650741 C5.48505465,13.7382513 6.19508799,13.9168281 7.07887294,13.9168281 C7.30089909,13.9168281 7.52074243,13.9060059 7.73952883,13.8886584 C7.60109278,13.42071 7.52074243,12.9299916 7.52074243,12.4213051 C7.52076541,9.36121355 10.1764169,6.87763632 13.538908,6.87763632 L13.538908,6.87759036 Z M9.73344454,4.97813285 C10.2665095,4.97813285 10.6193663,5.32554415 10.6193663,5.85268106 C10.6193663,6.37761219 10.2665095,6.72938911 9.73344454,6.72938911 C9.20251643,6.72938911 8.67050841,6.37761219 8.67050841,5.85268106 C8.67050841,5.32554415 9.20251643,4.97813285 9.73344454,4.97813285 Z M4.77929502,6.72936614 C4.24836691,6.72936614 3.71309617,6.37758921 3.71309617,5.85265809 C3.71309617,5.32552117 4.24836691,4.97810987 4.77929502,4.97810987 C5.30964871,4.97810987 5.66305699,5.32552117 5.66305699,5.85265809 C5.66305699,6.37761219 5.30964871,6.72936614 4.77929502,6.72936614 Z M19.999954,12.3371176 C19.999954,9.53650461 17.1678626,7.25376879 13.987257,7.25376879 C10.6193434,7.25376879 7.96695457,9.53650461 7.96695457,12.3371176 C7.96695457,15.1417976 10.6193434,17.4196393 13.987257,17.4196393 C14.6918678,17.4196393 15.403027,17.2448078 16.1109235,17.0689423 L18.0527964,18.1209874 L17.520214,16.370811 C18.9414754,15.3155032 20,13.9168051 20,12.3371176 L19.999954,12.3371176 Z M12.0351363,11.4603866 C11.6828539,11.4603866 11.3272398,11.1135038 11.3272398,10.759544 C11.3272398,10.4105014 11.682808,10.0592759 12.0351363,10.0592759 C12.5704071,10.0592759 12.9210811,10.4105014 12.9210811,10.759544 C12.9210811,11.1135038 12.5703841,11.4603866 12.0351363,11.4603866 Z M15.9285325,11.4603866 C15.5789844,11.4603866 15.2255531,11.1135038 15.2255531,10.759544 C15.2255531,10.4105014 15.5789614,10.0592759 15.9285325,10.0592759 C16.4594606,10.0592759 16.8144773,10.4105014 16.8144773,10.759544 C16.8144773,11.1135038 16.4594606,11.4603866 15.9285325,11.4603866 Z" id="Shape"></path>
        </g>
    </g>
</svg>
