<?xml version="1.0" encoding="UTF-8"?>
<svg width="20px" height="20px" viewBox="0 0 20 20" version="1.1" xmlns="http://www.w3.org/2000/svg" xmlns:xlink="http://www.w3.org/1999/xlink">
    <!-- Generator: Sketch 46.2 (44496) - http://www.bohemiancoding.com/sketch -->
    <title>微博</title>
    <desc>Created with Sketch.</desc>
    <defs></defs>
    <g id="定制旅行" stroke="none" stroke-width="1" fill="none" fill-rule="evenodd">
        <g id="微博" fill-rule="nonzero" fill="#918682">
            <path d="M19.6795268,8.92049733 L19.6741937,8.92049733 C19.5848637,9.53380732 19.2808753,9.58313877 18.9195557,9.58313877 C18.4875722,9.58313877 18.1369188,9.30981584 18.1369189,8.876499 C18.1369189,8.50051331 18.2929129,8.11919449 18.2929129,8.11919449 C18.3382445,7.96053385 18.7048972,6.9779046 18.0515888,5.50862719 C16.854301,3.49537049 14.4423928,3.46603828 14.1584036,3.58070056 C13.9276775,3.66040592 13.6896417,3.71712363 13.447764,3.75002746 C13.0133165,3.75002746 12.6611273,3.39783821 12.6611273,2.96339074 C12.6611273,2.60073787 12.9037847,2.29541616 13.2344388,2.20208638 C13.2344388,2.20208638 13.2411052,2.18875356 13.2531047,2.18608699 C13.2771038,2.18208715 13.3011029,2.15808805 13.3277686,2.15542149 C13.6610892,2.09009063 14.8597103,1.85676618 16.023666,2.12875584 C18.1062534,2.6140707 20.9648112,4.63132724 19.6795268,8.92049733 Z M13.9864102,6.02594083 C13.843321,6.02594127 13.7061118,5.96900823 13.6050576,5.86770393 C13.5040035,5.76639963 13.4474098,5.6290501 13.447764,5.48596139 C13.447764,5.18463952 13.6877549,4.94198209 13.9864102,4.94198209 C13.9864102,4.94198209 17.3529487,4.31933913 16.9502974,7.94186791 C16.9360978,8.22764066 16.7004428,8.4521577 16.4143178,8.45251514 C16.2706448,8.45322464 16.1326129,8.39664749 16.0307697,8.2953047 C15.9289264,8.19396191 15.87167,8.05621036 15.8716717,7.9125357 C15.8716717,7.9125357 16.4049848,5.49129453 13.9864102,6.02594083 L13.9864102,6.02594083 Z M14.2597331,7.04990186 C15.1716984,7.96186715 14.410394,9.21915263 14.410394,9.21915263 C14.410394,9.21915263 14.0330751,9.63780335 14.8103788,9.78979757 C15.5916824,9.94579164 18.0449224,11.0830817 16.6943071,13.9603055 C15.3450251,16.8308629 10.8918613,18.2294763 7.59198688,17.9694862 C4.45743951,17.7214957 0.426926262,16.680202 0.0096088135,12.8803466 C0.0096088135,12.8803466 -0.210382812,11.1590788 1.45488714,8.93116358 C1.45488714,8.93116358 3.85212923,5.58062444 6.64402296,4.62466083 C9.43724998,3.67403035 9.76390422,5.28330243 9.76390422,6.2352662 C9.61457657,7.04323545 9.33725379,7.51788405 10.3852139,7.1925631 C10.3852139,7.1925631 13.131776,5.91661166 14.2610664,7.04856857 L14.2597331,7.04990186 Z M7.83731088,9.11915643 C4.56276885,9.26981735 1.91486963,11.0257505 1.91486963,13.2176671 C1.91486963,15.4042505 4.56276884,17.0495212 7.83731088,16.897527 C11.1158528,16.7468661 13.7677518,14.6936109 13.7677518,12.5056942 C13.7677518,10.3191108 11.1145195,8.96716222 7.83731088,9.11915643 Z M5.15341303,15.5135797 C4.23744789,15.0162653 4.27077996,14.0376359 4.27077996,14.0376359 C4.27077996,14.0376359 3.89079443,10.9470869 7.18666897,10.5604349 C10.4852101,10.1764495 11.0731877,13.3309961 10.0705592,14.6282801 C9.0679307,15.9242307 7.08400621,16.55754 5.15474631,15.5122464 L5.15341303,15.5135797 Z M6.29870278,12.9856759 C5.6840595,13.0496735 5.24274296,13.5856531 5.24274296,14.0989669 C5.24274296,14.6149473 5.73872409,14.9696004 6.35336736,14.8976032 C6.96667736,14.8282725 7.46532504,14.3536239 7.46532504,13.8416433 C7.46532504,13.325663 7.00534255,12.9190118 6.29870278,12.9856759 Z M8.46795354,12.6123568 C8.35729108,12.4310304 8.1039674,12.3776991 7.85997668,12.5603588 C7.66179503,12.704626 7.60230873,12.9740303 7.72131529,13.1883349 C7.83064445,13.3749945 8.08663472,13.3976603 8.2946268,13.2416662 C8.49861903,13.0816723 8.57861599,12.8016829 8.46795354,12.6136901 L8.46795354,12.6123568 Z" id="Shape"></path>
        </g>
    </g>
</svg>
